# xmcd
#
# Track frame offsets:
#	225
#	19785
#	27874
#	48079
#	63354
#	74476
#	87271
#	98649
#	118492
#	134551
#	151276
#	161668
#	168363
#	176749
#	188516
#	199098
#	213935
#	221357
#	232042
#	248358
#
# Disc length: 3582 seconds
#
# Revision: 1
# Processed by: cddbd v1.4PL0 Copyright (c) Steve Scherf et al.
# Submitted via: EasyCDDAExtractor 6.0.0.1
#
DISCID=120dfb14
DTITLE=Elvis Presley - The Best Of Elvis (Live)
DYEAR=1900
DGENRE=rock'n'roll
TTITLE0=Maybelline
TTITLE1=Blue Moon
TTITLE2=I'm Left, You're Right, She's Gone (My Baby's Gone)
TTITLE3=Spanish Eyes
TTITLE4=That's All Right
TTITLE5=Shake, Rattle And Roll
TTITLE6=The Wonder Of You
TTITLE7=I Just Can't Help Believin'
TTITLE8=I've Lost You
TTITLE9=My Way
TTITLE10=Baby, Let's Play House
TTITLE11=Blue Moon Of Kentucky
TTITLE12=There's Good Rockin' Tonight
TTITLE13=Baby What You Want Me To Do
TTITLE14=C.C. Rider
TTITLE15=Can't Help Falling In Love With You
TTITLE16=(Let Me Be Your) Teddy Bear
TTITLE17=Don't Be Cruel
TTITLE18=Burning Love
TTITLE19=An American Trilogy
EXTD=
EXTT0=
EXTT1=
EXTT2=
EXTT3=
EXTT4=
EXTT5=
EXTT6=
EXTT7=
EXTT8=
EXTT9=
EXTT10=
EXTT11=
EXTT12=
EXTT13=
EXTT14=
EXTT15=
EXTT16=
EXTT17=
EXTT18=
EXTT19=
PLAYORDER=
